M48
; DRILL file {KiCad (6.0.7)} date Sat Nov 12 16:10:28 2022
; FORMAT={-:-/ absolute / inch / decimal}
; #@! TF.CreationDate,2022-11-12T16:10:28-08:00
; #@! TF.GenerationSoftware,Kicad,Pcbnew,(6.0.7)
; #@! TF.FileFunction,Plated,1,4,PTH
FMAT,2
INCH
; #@! TA.AperFunction,Plated,PTH,ViaDrill
T1C0.0157
; #@! TA.AperFunction,Plated,PTH,ComponentDrill
T2C0.0394
; #@! TA.AperFunction,Plated,PTH,ComponentDrill
T3C0.0433
; #@! TA.AperFunction,Plated,PTH,ComponentDrill
T4C0.0669
%
G90
G05
T1
X-0.2906Y-1.6188
X-0.2904Y-1.123
X-0.2894Y-0.6298
X-0.2889Y-0.8199
X-0.2254Y-1.3278
X-0.2244Y-1.2244
X-0.0591Y-2.0512
X0.2919Y-1.0174
X0.3583Y-1.2244
X0.3583Y-1.3228
X0.6024Y-1.5394
X0.685Y-0.5197
T2
X-0.7071Y-0.9735
X-0.7071Y-1.0735
X-0.7071Y-1.1735
X-0.7071Y-1.2735
X-0.7071Y-1.3735
X-0.7071Y-1.4735
X-0.7071Y-1.5735
X-0.7071Y-1.6735
X-0.7071Y-2.1719
X-0.7071Y-2.2719
X-0.7071Y-2.3719
X-0.7071Y-2.4719
X-0.7071Y-2.5719
X-0.5Y-0.374
X-0.5Y-0.474
X-0.5Y-0.574
X-0.5Y-0.674
X-0.5Y-0.774
X-0.5Y-0.874
X-0.5Y-0.974
X-0.5Y-1.074
X-0.5Y-1.174
X-0.5Y-1.274
X-0.5Y-1.374
X-0.5Y-1.474
X-0.5Y-1.574
X-0.5Y-1.674
X-0.5Y-1.774
X-0.3462Y-2.5575
X-0.2462Y-2.5575
X-0.1496Y-1.9882
X-0.1462Y-2.5575
X-0.0462Y-2.5575
X0.0538Y-2.5575
X0.1496Y-1.9882
X0.1538Y-2.5575
X0.2538Y-2.5575
X0.3538Y-2.5575
X0.5Y-0.374
X0.5Y-0.474
X0.5Y-0.574
X0.5Y-0.674
X0.5Y-0.774
X0.5Y-0.874
X0.5Y-0.974
X0.5Y-1.074
X0.5Y-1.174
X0.5Y-1.274
X0.5Y-1.374
X0.5Y-1.474
X0.5Y-1.574
X0.5Y-1.674
X0.5Y-1.774
X0.7071Y-0.6378
X0.7071Y-0.9749
X0.7071Y-1.0749
X0.7071Y-1.1749
X0.7071Y-1.2749
X0.7071Y-1.3749
X0.7071Y-1.4749
X0.7071Y-1.5749
X0.7071Y-1.6749
X0.7071Y-2.1721
X0.7071Y-2.2721
X0.7071Y-2.3721
X0.7071Y-2.4721
X0.7071Y-2.5721
X0.81Y-0.6378
T3
X-0.1Y-1.6035
X0.0Y-1.6035
X0.1Y-1.6035
T4
X-0.0984Y-0.6496
X0.0984Y-0.6496
T0
M30
