M48
; DRILL file {KiCad (6.0.7)} date Sat Nov 12 16:10:28 2022
; FORMAT={-:-/ absolute / inch / decimal}
; #@! TF.CreationDate,2022-11-12T16:10:28-08:00
; #@! TF.GenerationSoftware,Kicad,Pcbnew,(6.0.7)
; #@! TF.FileFunction,NonPlated,1,4,NPTH
FMAT,2
INCH
; #@! TA.AperFunction,NonPlated,NPTH,ComponentDrill
T1C0.0300
; #@! TA.AperFunction,NonPlated,NPTH,ComponentDrill
T2C0.0787
; #@! TA.AperFunction,NonPlated,NPTH,ComponentDrill
T3C0.1181
; #@! TA.AperFunction,NonPlated,NPTH,ComponentDrill
T4C0.1260
; #@! TA.AperFunction,NonPlated,NPTH,ComponentDrill
T5C0.1378
%
G90
G05
T1
X-0.2165Y-0.2559
X0.2165Y-0.2559
T2
X-0.9071Y-1.6735
X-0.9071Y-2.5719
X-0.9039Y-0.9735
X-0.9039Y-1.0735
X-0.9039Y-1.1735
X-0.9039Y-1.2735
X-0.9039Y-1.3735
X-0.9039Y-1.4735
X-0.9039Y-1.5735
X-0.9039Y-2.1719
X-0.9039Y-2.2719
X-0.9039Y-2.3719
X-0.9039Y-2.4719
X-0.3462Y-2.7543
X-0.2462Y-2.7543
X-0.1462Y-2.7543
X-0.0462Y-2.7543
X0.0538Y-2.7543
X0.1538Y-2.7543
X0.2538Y-2.7543
X0.3538Y-2.7575
X0.9039Y-1.0749
X0.9039Y-1.1749
X0.9039Y-1.2749
X0.9039Y-1.3749
X0.9039Y-1.4749
X0.9039Y-1.5749
X0.9039Y-1.6749
X0.9039Y-2.2721
X0.9039Y-2.3721
X0.9039Y-2.4721
X0.9039Y-2.5721
X0.9071Y-0.9749
X0.9071Y-2.1721
T3
X-0.5Y-0.174
X-0.5Y-2.174
X0.5Y-0.174
X0.5Y-2.174
T4
X-0.8071Y-0.1772
X-0.8071Y-1.9291
X0.8071Y-0.1772
X0.8071Y-1.9291
T5
X0.0Y-0.9476
T0
M30
