%TF.GenerationSoftware,KiCad,Pcbnew,(6.0.7)*%
%TF.CreationDate,2022-11-12T16:10:30-08:00*%
%TF.ProjectId,Cublic,4375626c-6963-42e6-9b69-6361645f7063,rev?*%
%TF.SameCoordinates,Original*%
%TF.FileFunction,Legend,Top*%
%TF.FilePolarity,Positive*%
%FSLAX46Y46*%
G04 Gerber Fmt 4.6, Leading zero omitted, Abs format (unit mm)*
G04 Created by KiCad (PCBNEW (6.0.7)) date 2022-11-12 16:10:30*
%MOMM*%
%LPD*%
G01*
G04 APERTURE LIST*
%ADD10C,0.150000*%
%ADD11C,0.375000*%
%ADD12C,0.120000*%
G04 APERTURE END LIST*
D10*
%TO.C,Q1*%
X95238Y-60402380D02*
X190476Y-60450000D01*
X285714Y-60545238D01*
X428571Y-60688095D01*
X523809Y-60735714D01*
X619047Y-60735714D01*
X571428Y-60497619D02*
X666666Y-60545238D01*
X761904Y-60640476D01*
X809523Y-60830952D01*
X809523Y-61164285D01*
X761904Y-61354761D01*
X666666Y-61450000D01*
X571428Y-61497619D01*
X380952Y-61497619D01*
X285714Y-61450000D01*
X190476Y-61354761D01*
X142857Y-61164285D01*
X142857Y-60830952D01*
X190476Y-60640476D01*
X285714Y-60545238D01*
X380952Y-60497619D01*
X571428Y-60497619D01*
X-809523Y-60497619D02*
X-238095Y-60497619D01*
X-523809Y-60497619D02*
X-523809Y-61497619D01*
X-428571Y-61354761D01*
X-333333Y-61259523D01*
X-238095Y-61211904D01*
%TO.C,SW1*%
X23309761Y-17533333D02*
X23357380Y-17390476D01*
X23357380Y-17152380D01*
X23309761Y-17057142D01*
X23262142Y-17009523D01*
X23166904Y-16961904D01*
X23071666Y-16961904D01*
X22976428Y-17009523D01*
X22928809Y-17057142D01*
X22881190Y-17152380D01*
X22833571Y-17342857D01*
X22785952Y-17438095D01*
X22738333Y-17485714D01*
X22643095Y-17533333D01*
X22547857Y-17533333D01*
X22452619Y-17485714D01*
X22405000Y-17438095D01*
X22357380Y-17342857D01*
X22357380Y-17104761D01*
X22405000Y-16961904D01*
X22357380Y-16628571D02*
X23357380Y-16390476D01*
X22643095Y-16200000D01*
X23357380Y-16009523D01*
X22357380Y-15771428D01*
X23357380Y-14866666D02*
X23357380Y-15438095D01*
X23357380Y-15152380D02*
X22357380Y-15152380D01*
X22500238Y-15247619D01*
X22595476Y-15342857D01*
X22643095Y-15438095D01*
%TO.C,R9*%
X19433333Y-12222380D02*
X19100000Y-11746190D01*
X18861904Y-12222380D02*
X18861904Y-11222380D01*
X19242857Y-11222380D01*
X19338095Y-11270000D01*
X19385714Y-11317619D01*
X19433333Y-11412857D01*
X19433333Y-11555714D01*
X19385714Y-11650952D01*
X19338095Y-11698571D01*
X19242857Y-11746190D01*
X18861904Y-11746190D01*
X19909523Y-12222380D02*
X20100000Y-12222380D01*
X20195238Y-12174761D01*
X20242857Y-12127142D01*
X20338095Y-11984285D01*
X20385714Y-11793809D01*
X20385714Y-11412857D01*
X20338095Y-11317619D01*
X20290476Y-11270000D01*
X20195238Y-11222380D01*
X20004761Y-11222380D01*
X19909523Y-11270000D01*
X19861904Y-11317619D01*
X19814285Y-11412857D01*
X19814285Y-11650952D01*
X19861904Y-11746190D01*
X19909523Y-11793809D01*
X20004761Y-11841428D01*
X20195238Y-11841428D01*
X20290476Y-11793809D01*
X20338095Y-11746190D01*
X20385714Y-11650952D01*
%TO.C,D3*%
X-6038095Y-32852380D02*
X-6038095Y-31852380D01*
X-5800000Y-31852380D01*
X-5657142Y-31900000D01*
X-5561904Y-31995238D01*
X-5514285Y-32090476D01*
X-5466666Y-32280952D01*
X-5466666Y-32423809D01*
X-5514285Y-32614285D01*
X-5561904Y-32709523D01*
X-5657142Y-32804761D01*
X-5800000Y-32852380D01*
X-6038095Y-32852380D01*
X-5133333Y-31852380D02*
X-4514285Y-31852380D01*
X-4847619Y-32233333D01*
X-4704761Y-32233333D01*
X-4609523Y-32280952D01*
X-4561904Y-32328571D01*
X-4514285Y-32423809D01*
X-4514285Y-32661904D01*
X-4561904Y-32757142D01*
X-4609523Y-32804761D01*
X-4704761Y-32852380D01*
X-4990476Y-32852380D01*
X-5085714Y-32804761D01*
X-5133333Y-32757142D01*
%TO.C,R19*%
X-8937857Y-39022380D02*
X-9271190Y-38546190D01*
X-9509285Y-39022380D02*
X-9509285Y-38022380D01*
X-9128333Y-38022380D01*
X-9033095Y-38070000D01*
X-8985476Y-38117619D01*
X-8937857Y-38212857D01*
X-8937857Y-38355714D01*
X-8985476Y-38450952D01*
X-9033095Y-38498571D01*
X-9128333Y-38546190D01*
X-9509285Y-38546190D01*
X-7985476Y-39022380D02*
X-8556904Y-39022380D01*
X-8271190Y-39022380D02*
X-8271190Y-38022380D01*
X-8366428Y-38165238D01*
X-8461666Y-38260476D01*
X-8556904Y-38308095D01*
X-7509285Y-39022380D02*
X-7318809Y-39022380D01*
X-7223571Y-38974761D01*
X-7175952Y-38927142D01*
X-7080714Y-38784285D01*
X-7033095Y-38593809D01*
X-7033095Y-38212857D01*
X-7080714Y-38117619D01*
X-7128333Y-38070000D01*
X-7223571Y-38022380D01*
X-7414047Y-38022380D01*
X-7509285Y-38070000D01*
X-7556904Y-38117619D01*
X-7604523Y-38212857D01*
X-7604523Y-38450952D01*
X-7556904Y-38546190D01*
X-7509285Y-38593809D01*
X-7414047Y-38641428D01*
X-7223571Y-38641428D01*
X-7128333Y-38593809D01*
X-7080714Y-38546190D01*
X-7033095Y-38450952D01*
%TO.C,U3*%
X19738095Y-21552380D02*
X19738095Y-22361904D01*
X19785714Y-22457142D01*
X19833333Y-22504761D01*
X19928571Y-22552380D01*
X20119047Y-22552380D01*
X20214285Y-22504761D01*
X20261904Y-22457142D01*
X20309523Y-22361904D01*
X20309523Y-21552380D01*
X20690476Y-21552380D02*
X21309523Y-21552380D01*
X20976190Y-21933333D01*
X21119047Y-21933333D01*
X21214285Y-21980952D01*
X21261904Y-22028571D01*
X21309523Y-22123809D01*
X21309523Y-22361904D01*
X21261904Y-22457142D01*
X21214285Y-22504761D01*
X21119047Y-22552380D01*
X20833333Y-22552380D01*
X20738095Y-22504761D01*
X20690476Y-22457142D01*
%TO.C,C2*%
X-1966666Y-36927142D02*
X-2014285Y-36974761D01*
X-2157142Y-37022380D01*
X-2252380Y-37022380D01*
X-2395238Y-36974761D01*
X-2490476Y-36879523D01*
X-2538095Y-36784285D01*
X-2585714Y-36593809D01*
X-2585714Y-36450952D01*
X-2538095Y-36260476D01*
X-2490476Y-36165238D01*
X-2395238Y-36070000D01*
X-2252380Y-36022380D01*
X-2157142Y-36022380D01*
X-2014285Y-36070000D01*
X-1966666Y-36117619D01*
X-1585714Y-36117619D02*
X-1538095Y-36070000D01*
X-1442857Y-36022380D01*
X-1204761Y-36022380D01*
X-1109523Y-36070000D01*
X-1061904Y-36117619D01*
X-1014285Y-36212857D01*
X-1014285Y-36308095D01*
X-1061904Y-36450952D01*
X-1633333Y-37022380D01*
X-1014285Y-37022380D01*
%TO.C,D6*%
X-6038095Y-35452380D02*
X-6038095Y-34452380D01*
X-5800000Y-34452380D01*
X-5657142Y-34500000D01*
X-5561904Y-34595238D01*
X-5514285Y-34690476D01*
X-5466666Y-34880952D01*
X-5466666Y-35023809D01*
X-5514285Y-35214285D01*
X-5561904Y-35309523D01*
X-5657142Y-35404761D01*
X-5800000Y-35452380D01*
X-6038095Y-35452380D01*
X-4609523Y-34452380D02*
X-4800000Y-34452380D01*
X-4895238Y-34500000D01*
X-4942857Y-34547619D01*
X-5038095Y-34690476D01*
X-5085714Y-34880952D01*
X-5085714Y-35261904D01*
X-5038095Y-35357142D01*
X-4990476Y-35404761D01*
X-4895238Y-35452380D01*
X-4704761Y-35452380D01*
X-4609523Y-35404761D01*
X-4561904Y-35357142D01*
X-4514285Y-35261904D01*
X-4514285Y-35023809D01*
X-4561904Y-34928571D01*
X-4609523Y-34880952D01*
X-4704761Y-34833333D01*
X-4895238Y-34833333D01*
X-4990476Y-34880952D01*
X-5038095Y-34928571D01*
X-5085714Y-35023809D01*
%TO.C,D5*%
X-6038095Y-30352380D02*
X-6038095Y-29352380D01*
X-5800000Y-29352380D01*
X-5657142Y-29400000D01*
X-5561904Y-29495238D01*
X-5514285Y-29590476D01*
X-5466666Y-29780952D01*
X-5466666Y-29923809D01*
X-5514285Y-30114285D01*
X-5561904Y-30209523D01*
X-5657142Y-30304761D01*
X-5800000Y-30352380D01*
X-6038095Y-30352380D01*
X-4561904Y-29352380D02*
X-5038095Y-29352380D01*
X-5085714Y-29828571D01*
X-5038095Y-29780952D01*
X-4942857Y-29733333D01*
X-4704761Y-29733333D01*
X-4609523Y-29780952D01*
X-4561904Y-29828571D01*
X-4514285Y-29923809D01*
X-4514285Y-30161904D01*
X-4561904Y-30257142D01*
X-4609523Y-30304761D01*
X-4704761Y-30352380D01*
X-4942857Y-30352380D01*
X-5038095Y-30304761D01*
X-5085714Y-30257142D01*
%TO.C,U1*%
X-19838095Y-45247619D02*
X-19838095Y-44438095D01*
X-19885714Y-44342857D01*
X-19933333Y-44295238D01*
X-20028571Y-44247619D01*
X-20219047Y-44247619D01*
X-20314285Y-44295238D01*
X-20361904Y-44342857D01*
X-20409523Y-44438095D01*
X-20409523Y-45247619D01*
X-21409523Y-44247619D02*
X-20838095Y-44247619D01*
X-21123809Y-44247619D02*
X-21123809Y-45247619D01*
X-21028571Y-45104761D01*
X-20933333Y-45009523D01*
X-20838095Y-44961904D01*
%TO.C,C1*%
X1733333Y-36957142D02*
X1685714Y-37004761D01*
X1542857Y-37052380D01*
X1447619Y-37052380D01*
X1304761Y-37004761D01*
X1209523Y-36909523D01*
X1161904Y-36814285D01*
X1114285Y-36623809D01*
X1114285Y-36480952D01*
X1161904Y-36290476D01*
X1209523Y-36195238D01*
X1304761Y-36100000D01*
X1447619Y-36052380D01*
X1542857Y-36052380D01*
X1685714Y-36100000D01*
X1733333Y-36147619D01*
X2685714Y-37052380D02*
X2114285Y-37052380D01*
X2400000Y-37052380D02*
X2400000Y-36052380D01*
X2304761Y-36195238D01*
X2209523Y-36290476D01*
X2114285Y-36338095D01*
%TO.C,U5*%
X-11161904Y-2152380D02*
X-11161904Y-2961904D01*
X-11114285Y-3057142D01*
X-11066666Y-3104761D01*
X-10971428Y-3152380D01*
X-10780952Y-3152380D01*
X-10685714Y-3104761D01*
X-10638095Y-3057142D01*
X-10590476Y-2961904D01*
X-10590476Y-2152380D01*
X-9638095Y-2152380D02*
X-10114285Y-2152380D01*
X-10161904Y-2628571D01*
X-10114285Y-2580952D01*
X-10019047Y-2533333D01*
X-9780952Y-2533333D01*
X-9685714Y-2580952D01*
X-9638095Y-2628571D01*
X-9590476Y-2723809D01*
X-9590476Y-2961904D01*
X-9638095Y-3057142D01*
X-9685714Y-3104761D01*
X-9780952Y-3152380D01*
X-10019047Y-3152380D01*
X-10114285Y-3104761D01*
X-10161904Y-3057142D01*
D11*
X-9007142Y-12392857D02*
X-8507142Y-12392857D01*
X-8292857Y-13178571D02*
X-9007142Y-13178571D01*
X-9007142Y-11678571D01*
X-8292857Y-11678571D01*
X-7721428Y-13107142D02*
X-7507142Y-13178571D01*
X-7149999Y-13178571D01*
X-7007142Y-13107142D01*
X-6935714Y-13035714D01*
X-6864285Y-12892857D01*
X-6864285Y-12750000D01*
X-6935714Y-12607142D01*
X-7007142Y-12535714D01*
X-7149999Y-12464285D01*
X-7435714Y-12392857D01*
X-7578571Y-12321428D01*
X-7649999Y-12250000D01*
X-7721428Y-12107142D01*
X-7721428Y-11964285D01*
X-7649999Y-11821428D01*
X-7578571Y-11750000D01*
X-7435714Y-11678571D01*
X-7078571Y-11678571D01*
X-6864285Y-11750000D01*
X-6221428Y-13178571D02*
X-6221428Y-11678571D01*
X-5649999Y-11678571D01*
X-5507142Y-11750000D01*
X-5435714Y-11821428D01*
X-5364285Y-11964285D01*
X-5364285Y-12178571D01*
X-5435714Y-12321428D01*
X-5507142Y-12392857D01*
X-5649999Y-12464285D01*
X-6221428Y-12464285D01*
X-4721428Y-12607142D02*
X-3578571Y-12607142D01*
X-3007142Y-11678571D02*
X-2649999Y-13178571D01*
X-2364285Y-12107142D01*
X-2078571Y-13178571D01*
X-1721428Y-11678571D01*
X-292857Y-13178571D02*
X-792857Y-12464285D01*
X-1149999Y-13178571D02*
X-1149999Y-11678571D01*
X-578571Y-11678571D01*
X-435714Y-11750000D01*
X-364285Y-11821428D01*
X-292857Y-11964285D01*
X-292857Y-12178571D01*
X-364285Y-12321428D01*
X-435714Y-12392857D01*
X-578571Y-12464285D01*
X-1149999Y-12464285D01*
X635714Y-11678571D02*
X921428Y-11678571D01*
X1064285Y-11750000D01*
X1207142Y-11892857D01*
X1278571Y-12178571D01*
X1278571Y-12678571D01*
X1207142Y-12964285D01*
X1064285Y-13107142D01*
X921428Y-13178571D01*
X635714Y-13178571D01*
X492857Y-13107142D01*
X350000Y-12964285D01*
X278571Y-12678571D01*
X278571Y-12178571D01*
X350000Y-11892857D01*
X492857Y-11750000D01*
X635714Y-11678571D01*
X2207142Y-11678571D02*
X2492857Y-11678571D01*
X2635714Y-11750000D01*
X2778571Y-11892857D01*
X2850000Y-12178571D01*
X2850000Y-12678571D01*
X2778571Y-12964285D01*
X2635714Y-13107142D01*
X2492857Y-13178571D01*
X2207142Y-13178571D01*
X2064285Y-13107142D01*
X1921428Y-12964285D01*
X1850000Y-12678571D01*
X1850000Y-12178571D01*
X1921428Y-11892857D01*
X2064285Y-11750000D01*
X2207142Y-11678571D01*
X3492857Y-13178571D02*
X3492857Y-11678571D01*
X3992857Y-12750000D01*
X4492857Y-11678571D01*
X4492857Y-13178571D01*
X5207142Y-12607142D02*
X6350000Y-12607142D01*
X6921428Y-11678571D02*
X7850000Y-11678571D01*
X7350000Y-12250000D01*
X7564285Y-12250000D01*
X7707142Y-12321428D01*
X7778571Y-12392857D01*
X7850000Y-12535714D01*
X7850000Y-12892857D01*
X7778571Y-13035714D01*
X7707142Y-13107142D01*
X7564285Y-13178571D01*
X7135714Y-13178571D01*
X6992857Y-13107142D01*
X6921428Y-13035714D01*
X8421428Y-11821428D02*
X8492857Y-11750000D01*
X8635714Y-11678571D01*
X8992857Y-11678571D01*
X9135714Y-11750000D01*
X9207142Y-11821428D01*
X9278571Y-11964285D01*
X9278571Y-12107142D01*
X9207142Y-12321428D01*
X8350000Y-13178571D01*
X9278571Y-13178571D01*
D10*
%TO.C,U2*%
X12347619Y-67438095D02*
X11538095Y-67438095D01*
X11442857Y-67485714D01*
X11395238Y-67533333D01*
X11347619Y-67628571D01*
X11347619Y-67819047D01*
X11395238Y-67914285D01*
X11442857Y-67961904D01*
X11538095Y-68009523D01*
X12347619Y-68009523D01*
X12252380Y-68438095D02*
X12300000Y-68485714D01*
X12347619Y-68580952D01*
X12347619Y-68819047D01*
X12300000Y-68914285D01*
X12252380Y-68961904D01*
X12157142Y-69009523D01*
X12061904Y-69009523D01*
X11919047Y-68961904D01*
X11347619Y-68390476D01*
X11347619Y-69009523D01*
%TO.C,D2*%
X-6038095Y-27752380D02*
X-6038095Y-26752380D01*
X-5800000Y-26752380D01*
X-5657142Y-26800000D01*
X-5561904Y-26895238D01*
X-5514285Y-26990476D01*
X-5466666Y-27180952D01*
X-5466666Y-27323809D01*
X-5514285Y-27514285D01*
X-5561904Y-27609523D01*
X-5657142Y-27704761D01*
X-5800000Y-27752380D01*
X-6038095Y-27752380D01*
X-5085714Y-26847619D02*
X-5038095Y-26800000D01*
X-4942857Y-26752380D01*
X-4704761Y-26752380D01*
X-4609523Y-26800000D01*
X-4561904Y-26847619D01*
X-4514285Y-26942857D01*
X-4514285Y-27038095D01*
X-4561904Y-27180952D01*
X-5133333Y-27752380D01*
X-4514285Y-27752380D01*
%TO.C,U6*%
X19738095Y-54852380D02*
X19738095Y-55661904D01*
X19785714Y-55757142D01*
X19833333Y-55804761D01*
X19928571Y-55852380D01*
X20119047Y-55852380D01*
X20214285Y-55804761D01*
X20261904Y-55757142D01*
X20309523Y-55661904D01*
X20309523Y-54852380D01*
X21214285Y-54852380D02*
X21023809Y-54852380D01*
X20928571Y-54900000D01*
X20880952Y-54947619D01*
X20785714Y-55090476D01*
X20738095Y-55280952D01*
X20738095Y-55661904D01*
X20785714Y-55757142D01*
X20833333Y-55804761D01*
X20928571Y-55852380D01*
X21119047Y-55852380D01*
X21214285Y-55804761D01*
X21261904Y-55757142D01*
X21309523Y-55661904D01*
X21309523Y-55423809D01*
X21261904Y-55328571D01*
X21214285Y-55280952D01*
X21119047Y-55233333D01*
X20928571Y-55233333D01*
X20833333Y-55280952D01*
X20785714Y-55328571D01*
X20738095Y-55423809D01*
%TO.C,U7*%
X-19938095Y-65847619D02*
X-19938095Y-65038095D01*
X-19985714Y-64942857D01*
X-20033333Y-64895238D01*
X-20128571Y-64847619D01*
X-20319047Y-64847619D01*
X-20414285Y-64895238D01*
X-20461904Y-64942857D01*
X-20509523Y-65038095D01*
X-20509523Y-65847619D01*
X-20890476Y-65847619D02*
X-21557142Y-65847619D01*
X-21128571Y-64847619D01*
%TO.C,D1*%
X-6038095Y-22652380D02*
X-6038095Y-21652380D01*
X-5800000Y-21652380D01*
X-5657142Y-21700000D01*
X-5561904Y-21795238D01*
X-5514285Y-21890476D01*
X-5466666Y-22080952D01*
X-5466666Y-22223809D01*
X-5514285Y-22414285D01*
X-5561904Y-22509523D01*
X-5657142Y-22604761D01*
X-5800000Y-22652380D01*
X-6038095Y-22652380D01*
X-4514285Y-22652380D02*
X-5085714Y-22652380D01*
X-4800000Y-22652380D02*
X-4800000Y-21652380D01*
X-4895238Y-21795238D01*
X-4990476Y-21890476D01*
X-5085714Y-21938095D01*
%TO.C,D4*%
X-6038095Y-25252380D02*
X-6038095Y-24252380D01*
X-5800000Y-24252380D01*
X-5657142Y-24300000D01*
X-5561904Y-24395238D01*
X-5514285Y-24490476D01*
X-5466666Y-24680952D01*
X-5466666Y-24823809D01*
X-5514285Y-25014285D01*
X-5561904Y-25109523D01*
X-5657142Y-25204761D01*
X-5800000Y-25252380D01*
X-6038095Y-25252380D01*
X-4609523Y-24585714D02*
X-4609523Y-25252380D01*
X-4847619Y-24204761D02*
X-5085714Y-24919047D01*
X-4466666Y-24919047D01*
D12*
%TO.C,Q1*%
X2250000Y-58150000D02*
X2250000Y-54100000D01*
X-2250000Y-58150000D02*
X-1000000Y-58150000D01*
X-2250000Y-58150000D02*
X-2250000Y-54100000D01*
X1000000Y-58150000D02*
X2250000Y-58150000D01*
%TO.C,SW1*%
X20575000Y-14870000D02*
X21905000Y-14870000D01*
X16705000Y-14870000D02*
X16705000Y-17530000D01*
X19305000Y-14870000D02*
X16705000Y-14870000D01*
X19305000Y-14870000D02*
X19305000Y-17530000D01*
X21905000Y-14870000D02*
X21905000Y-16200000D01*
X19305000Y-17530000D02*
X16705000Y-17530000D01*
%TO.C,R9*%
X19345276Y-12677500D02*
X19854724Y-12677500D01*
X19345276Y-13722500D02*
X19854724Y-13722500D01*
%TO.C,D3*%
X-7450000Y-31625000D02*
X-9910000Y-31625000D01*
X-9910000Y-33095000D02*
X-7450000Y-33095000D01*
X-9910000Y-31625000D02*
X-9910000Y-33095000D01*
%TO.C,R19*%
X-8549724Y-39477500D02*
X-8040276Y-39477500D01*
X-8549724Y-40522500D02*
X-8040276Y-40522500D01*
%TO.C,U3*%
X24370000Y-26032500D02*
X24370000Y-43872500D01*
X16630000Y-26032500D02*
X16630000Y-43872500D01*
X16630000Y-43872500D02*
X24370000Y-43872500D01*
X16630000Y-26032500D02*
X24370000Y-26032500D01*
X16630000Y-23432500D02*
X17960000Y-23432500D01*
X16630000Y-24762500D02*
X16630000Y-23432500D01*
%TO.C,C2*%
X-1946267Y-38510000D02*
X-1653733Y-38510000D01*
X-1946267Y-37490000D02*
X-1653733Y-37490000D01*
%TO.C,D6*%
X-9910000Y-35635000D02*
X-7450000Y-35635000D01*
X-7450000Y-34165000D02*
X-9910000Y-34165000D01*
X-9910000Y-34165000D02*
X-9910000Y-35635000D01*
%TO.C,D5*%
X-9910000Y-30555000D02*
X-7450000Y-30555000D01*
X-7450000Y-29085000D02*
X-9910000Y-29085000D01*
X-9910000Y-29085000D02*
X-9910000Y-30555000D01*
%TO.C,U1*%
X-16630000Y-43836000D02*
X-17960000Y-43836000D01*
X-16630000Y-42506000D02*
X-16630000Y-43836000D01*
X-16630000Y-41236000D02*
X-24370000Y-41236000D01*
X-24370000Y-41236000D02*
X-24370000Y-23396000D01*
X-16630000Y-23396000D02*
X-24370000Y-23396000D01*
X-16630000Y-41236000D02*
X-16630000Y-23396000D01*
%TO.C,C1*%
X2046267Y-38510000D02*
X1753733Y-38510000D01*
X2046267Y-37490000D02*
X1753733Y-37490000D01*
%TO.C,U5*%
X14700000Y-1500000D02*
X14700000Y-57060000D01*
X11200000Y-8000000D02*
X11200000Y-47060000D01*
X-13200000Y-8000000D02*
X-14200000Y-9000000D01*
X-14700000Y-1500000D02*
X14700000Y-1500000D01*
X-10200000Y-10770000D02*
X-10200000Y-28500000D01*
X-14700000Y-1500000D02*
X-14700000Y-57060000D01*
X-14200000Y-8000000D02*
X-14200000Y-47060000D01*
X-10200000Y-10770000D02*
X10200000Y-10770000D01*
X14200000Y-8000000D02*
X14200000Y-47060000D01*
X-10200000Y-28500000D02*
X10200000Y-28500000D01*
X-13200000Y-8000000D02*
X-14200000Y-8000000D01*
X-11200000Y-47060000D02*
X-14200000Y-47060000D01*
X-11200000Y-10770000D02*
X-11200000Y-47060000D01*
X11200000Y-8000000D02*
X14200000Y-8000000D01*
X-11200000Y-10770000D02*
X-14200000Y-10770000D01*
X-14700000Y-57060000D02*
X14700000Y-57060000D01*
X10200000Y-10770000D02*
X10200000Y-28500000D01*
X11200000Y-47060000D02*
X14200000Y-47060000D01*
%TO.C,U2*%
X7717500Y-71370000D02*
X-10122500Y-71370000D01*
X7717500Y-63630000D02*
X7717500Y-71370000D01*
X-10122500Y-63630000D02*
X-10122500Y-71370000D01*
X7717500Y-63630000D02*
X-10122500Y-63630000D01*
X10317500Y-63630000D02*
X10317500Y-64960000D01*
X8987500Y-63630000D02*
X10317500Y-63630000D01*
%TO.C,D2*%
X-7450000Y-26545000D02*
X-9910000Y-26545000D01*
X-9910000Y-28015000D02*
X-7450000Y-28015000D01*
X-9910000Y-26545000D02*
X-9910000Y-28015000D01*
%TO.C,U6*%
X16630000Y-56442500D02*
X16630000Y-66662500D01*
X24370000Y-56442500D02*
X24370000Y-66662500D01*
X16630000Y-56442500D02*
X24370000Y-56442500D01*
X16630000Y-66662500D02*
X24370000Y-66662500D01*
X16630000Y-55172500D02*
X16630000Y-53842500D01*
X16630000Y-53842500D02*
X17960000Y-53842500D01*
%TO.C,U7*%
X-16630000Y-66657500D02*
X-17960000Y-66657500D01*
X-16630000Y-53837500D02*
X-24370000Y-53837500D01*
X-16630000Y-64057500D02*
X-24370000Y-64057500D01*
X-24370000Y-64057500D02*
X-24370000Y-53837500D01*
X-16630000Y-64057500D02*
X-16630000Y-53837500D01*
X-16630000Y-65327500D02*
X-16630000Y-66657500D01*
%TO.C,D1*%
X-7450000Y-21465000D02*
X-9910000Y-21465000D01*
X-9910000Y-21465000D02*
X-9910000Y-22935000D01*
X-9910000Y-22935000D02*
X-7450000Y-22935000D01*
%TO.C,D4*%
X-9910000Y-24005000D02*
X-9910000Y-25475000D01*
X-9910000Y-25475000D02*
X-7450000Y-25475000D01*
X-7450000Y-24005000D02*
X-9910000Y-24005000D01*
%TD*%
M02*
