%TF.GenerationSoftware,KiCad,Pcbnew,(6.0.7)*%
%TF.CreationDate,2022-11-12T16:10:30-08:00*%
%TF.ProjectId,Cublic,4375626c-6963-42e6-9b69-6361645f7063,rev?*%
%TF.SameCoordinates,Original*%
%TF.FileFunction,Soldermask,Top*%
%TF.FilePolarity,Negative*%
%FSLAX46Y46*%
G04 Gerber Fmt 4.6, Leading zero omitted, Abs format (unit mm)*
G04 Created by KiCad (PCBNEW (6.0.7)) date 2022-11-12 16:10:30*
%MOMM*%
%LPD*%
G01*
G04 APERTURE LIST*
G04 Aperture macros list*
%AMRoundRect*
0 Rectangle with rounded corners*
0 $1 Rounding radius*
0 $2 $3 $4 $5 $6 $7 $8 $9 X,Y pos of 4 corners*
0 Add a 4 corners polygon primitive as box body*
4,1,4,$2,$3,$4,$5,$6,$7,$8,$9,$2,$3,0*
0 Add four circle primitives for the rounded corners*
1,1,$1+$1,$2,$3*
1,1,$1+$1,$4,$5*
1,1,$1+$1,$6,$7*
1,1,$1+$1,$8,$9*
0 Add four rect primitives between the rounded corners*
20,1,$1+$1,$2,$3,$4,$5,0*
20,1,$1+$1,$4,$5,$6,$7,0*
20,1,$1+$1,$6,$7,$8,$9,0*
20,1,$1+$1,$8,$9,$2,$3,0*%
G04 Aperture macros list end*
%ADD10RoundRect,0.250000X0.250000X0.500000X-0.250000X0.500000X-0.250000X-0.500000X0.250000X-0.500000X0*%
%ADD11R,1.700000X1.700000*%
%ADD12O,1.700000X1.700000*%
%ADD13RoundRect,0.237500X-0.250000X-0.237500X0.250000X-0.237500X0.250000X0.237500X-0.250000X0.237500X0*%
%ADD14RoundRect,0.237500X-0.287500X-0.237500X0.287500X-0.237500X0.287500X0.237500X-0.287500X0.237500X0*%
%ADD15C,3.200000*%
%ADD16C,1.700000*%
%ADD17RoundRect,0.237500X-0.300000X-0.237500X0.300000X-0.237500X0.300000X0.237500X-0.300000X0.237500X0*%
%ADD18RoundRect,0.237500X0.300000X0.237500X-0.300000X0.237500X-0.300000X-0.237500X0.300000X-0.237500X0*%
%ADD19O,3.500000X3.500000*%
%ADD20R,1.905000X2.000000*%
%ADD21O,1.905000X2.000000*%
%ADD22R,2.000000X2.000000*%
%ADD23C,2.000000*%
%ADD24C,1.000000*%
%ADD25C,3.000000*%
G04 APERTURE END LIST*
%TO.C,Q1*%
G36*
X500000Y-54751034D02*
G01*
X1000000Y-55251034D01*
X1000000Y-57951034D01*
X500000Y-58451034D01*
X-500000Y-58451034D01*
X-1000000Y-57951034D01*
X-1000000Y-55251034D01*
X-500000Y-54751034D01*
X-500000Y-54201034D01*
X500000Y-54201034D01*
X500000Y-54751034D01*
G37*
%TD*%
D10*
%TO.C,Q1*%
X-1500000Y-53700000D03*
X1500000Y-53700000D03*
X0Y-53700000D03*
%TD*%
D11*
%TO.C,SW1*%
X20575000Y-16200000D03*
D12*
X17960000Y-16200000D03*
%TD*%
D13*
%TO.C,R9*%
X18687500Y-13200000D03*
X20512500Y-13200000D03*
%TD*%
D14*
%TO.C,D3*%
X-9125000Y-32360000D03*
X-7375000Y-32360000D03*
%TD*%
D13*
%TO.C,R19*%
X-9207500Y-40000000D03*
X-7382500Y-40000000D03*
%TD*%
D15*
%TO.C,H1*%
X20500000Y-4500000D03*
%TD*%
D16*
%TO.C,U3*%
X22960000Y-34922500D03*
X22960000Y-27302500D03*
X22960000Y-37462500D03*
X22960000Y-40002500D03*
X22960000Y-42542500D03*
X22960000Y-29842500D03*
X23040000Y-24762500D03*
X22960000Y-32382500D03*
D11*
X17960000Y-24762500D03*
D12*
X17960000Y-27302500D03*
X17960000Y-29842500D03*
X17960000Y-32382500D03*
X17960000Y-34922500D03*
X17960000Y-37462500D03*
X17960000Y-40002500D03*
X17960000Y-42542500D03*
%TD*%
D17*
%TO.C,C2*%
X-2662500Y-38000000D03*
X-937500Y-38000000D03*
%TD*%
D14*
%TO.C,D6*%
X-9125000Y-34900000D03*
X-7375000Y-34900000D03*
%TD*%
%TO.C,D5*%
X-9125000Y-29820000D03*
X-7375000Y-29820000D03*
%TD*%
D16*
%TO.C,U1*%
X-22960000Y-34886000D03*
X-23040000Y-42506000D03*
X-22960000Y-24726000D03*
X-22960000Y-27266000D03*
X-22960000Y-39966000D03*
X-22960000Y-32346000D03*
X-22960000Y-29806000D03*
X-22960000Y-37426000D03*
D11*
X-17960000Y-42506000D03*
D12*
X-17960000Y-39966000D03*
X-17960000Y-37426000D03*
X-17960000Y-34886000D03*
X-17960000Y-32346000D03*
X-17960000Y-29806000D03*
X-17960000Y-27266000D03*
X-17960000Y-24726000D03*
%TD*%
D18*
%TO.C,C1*%
X2762500Y-38000000D03*
X1037500Y-38000000D03*
%TD*%
D16*
%TO.C,U5*%
X-12700000Y-4420000D03*
X12700000Y-55220000D03*
X-12700000Y-55220000D03*
X12700000Y-4420000D03*
D11*
X-12700000Y-9500000D03*
D16*
X-12700000Y-12040000D03*
X-12700000Y-14580000D03*
X-12700000Y-17120000D03*
X-12700000Y-19660000D03*
X-12700000Y-22200000D03*
X-12700000Y-24740000D03*
X-12700000Y-27280000D03*
X-12700000Y-29820000D03*
X-12700000Y-32360000D03*
X-12700000Y-34900000D03*
X-12700000Y-37440000D03*
X-12700000Y-39980000D03*
X-12700000Y-42520000D03*
X-12700000Y-45060000D03*
X12700000Y-9500000D03*
X12700000Y-12040000D03*
X12700000Y-14580000D03*
X12700000Y-17120000D03*
X12700000Y-19660000D03*
X12700000Y-22200000D03*
X12700000Y-24740000D03*
X12700000Y-27280000D03*
X12700000Y-29820000D03*
X12700000Y-32360000D03*
X12700000Y-34900000D03*
X12700000Y-37440000D03*
X12700000Y-39980000D03*
X12700000Y-42520000D03*
X12700000Y-45060000D03*
%TD*%
D12*
%TO.C,U2*%
X-8792500Y-64960000D03*
X-6252500Y-64960000D03*
X-3712500Y-64960000D03*
X-1172500Y-64960000D03*
X1367500Y-64960000D03*
X3907500Y-64960000D03*
X6447500Y-64960000D03*
D11*
X8987500Y-64960000D03*
D16*
X-1172500Y-69960000D03*
X-3712500Y-69960000D03*
X-6252500Y-69960000D03*
X8987500Y-70040000D03*
X3907500Y-69960000D03*
X-8792500Y-69960000D03*
X1367500Y-69960000D03*
X6447500Y-69960000D03*
%TD*%
D14*
%TO.C,D2*%
X-9125000Y-27280000D03*
X-7375000Y-27280000D03*
%TD*%
D12*
%TO.C,U6*%
X17960000Y-65332500D03*
X17960000Y-62792500D03*
X17960000Y-60252500D03*
X17960000Y-57712500D03*
D11*
X17960000Y-55172500D03*
D16*
X23040000Y-55172500D03*
X22960000Y-60252500D03*
X22960000Y-62792500D03*
X22960000Y-57712500D03*
X22960000Y-65332500D03*
%TD*%
D12*
%TO.C,U7*%
X-17960000Y-55167500D03*
X-17960000Y-57707500D03*
X-17960000Y-60247500D03*
X-17960000Y-62787500D03*
D11*
X-17960000Y-65327500D03*
D16*
X-22960000Y-57707500D03*
X-22960000Y-60247500D03*
X-22960000Y-55167500D03*
X-22960000Y-62787500D03*
X-23040000Y-65327500D03*
%TD*%
D15*
%TO.C,H3*%
X20500000Y-49000000D03*
%TD*%
D14*
%TO.C,D1*%
X-9125000Y-22200000D03*
X-7375000Y-22200000D03*
%TD*%
D15*
%TO.C,H2*%
X-20500000Y-4500000D03*
%TD*%
D14*
%TO.C,D4*%
X-9125000Y-24740000D03*
X-7375000Y-24740000D03*
%TD*%
D15*
%TO.C,H4*%
X-20500000Y-49000000D03*
%TD*%
D19*
%TO.C,U4*%
X0Y-24070000D03*
D20*
X2540000Y-40730000D03*
D21*
X0Y-40730000D03*
X-2540000Y-40730000D03*
%TD*%
D22*
%TO.C,BZ1*%
X-3800000Y-50500000D03*
D23*
X3800000Y-50500000D03*
%TD*%
D24*
%TO.C,J1*%
X5500000Y-6500000D03*
X-5500000Y-6500000D03*
D25*
X2500000Y-16500000D03*
X-2500000Y-16500000D03*
%TD*%
M02*
