%TF.GenerationSoftware,KiCad,Pcbnew,(6.0.7)*%
%TF.CreationDate,2022-11-12T16:10:30-08:00*%
%TF.ProjectId,Cublic,4375626c-6963-42e6-9b69-6361645f7063,rev?*%
%TF.SameCoordinates,Original*%
%TF.FileFunction,Copper,L1,Top*%
%TF.FilePolarity,Positive*%
%FSLAX46Y46*%
G04 Gerber Fmt 4.6, Leading zero omitted, Abs format (unit mm)*
G04 Created by KiCad (PCBNEW (6.0.7)) date 2022-11-12 16:10:30*
%MOMM*%
%LPD*%
G01*
G04 APERTURE LIST*
G04 Aperture macros list*
%AMRoundRect*
0 Rectangle with rounded corners*
0 $1 Rounding radius*
0 $2 $3 $4 $5 $6 $7 $8 $9 X,Y pos of 4 corners*
0 Add a 4 corners polygon primitive as box body*
4,1,4,$2,$3,$4,$5,$6,$7,$8,$9,$2,$3,0*
0 Add four circle primitives for the rounded corners*
1,1,$1+$1,$2,$3*
1,1,$1+$1,$4,$5*
1,1,$1+$1,$6,$7*
1,1,$1+$1,$8,$9*
0 Add four rect primitives between the rounded corners*
20,1,$1+$1,$2,$3,$4,$5,0*
20,1,$1+$1,$4,$5,$6,$7,0*
20,1,$1+$1,$6,$7,$8,$9,0*
20,1,$1+$1,$8,$9,$2,$3,0*%
G04 Aperture macros list end*
%TA.AperFunction,SMDPad,CuDef*%
%ADD10RoundRect,0.250000X0.250000X0.500000X-0.250000X0.500000X-0.250000X-0.500000X0.250000X-0.500000X0*%
%TD*%
%TA.AperFunction,ComponentPad*%
%ADD11R,1.700000X1.700000*%
%TD*%
%TA.AperFunction,ComponentPad*%
%ADD12O,1.700000X1.700000*%
%TD*%
%TA.AperFunction,SMDPad,CuDef*%
%ADD13RoundRect,0.237500X-0.250000X-0.237500X0.250000X-0.237500X0.250000X0.237500X-0.250000X0.237500X0*%
%TD*%
%TA.AperFunction,SMDPad,CuDef*%
%ADD14RoundRect,0.237500X-0.287500X-0.237500X0.287500X-0.237500X0.287500X0.237500X-0.287500X0.237500X0*%
%TD*%
%TA.AperFunction,SMDPad,CuDef*%
%ADD15RoundRect,0.237500X-0.300000X-0.237500X0.300000X-0.237500X0.300000X0.237500X-0.300000X0.237500X0*%
%TD*%
%TA.AperFunction,SMDPad,CuDef*%
%ADD16RoundRect,0.237500X0.300000X0.237500X-0.300000X0.237500X-0.300000X-0.237500X0.300000X-0.237500X0*%
%TD*%
%TA.AperFunction,ComponentPad*%
%ADD17C,1.700000*%
%TD*%
%TA.AperFunction,ComponentPad*%
%ADD18R,1.905000X2.000000*%
%TD*%
%TA.AperFunction,ComponentPad*%
%ADD19O,1.905000X2.000000*%
%TD*%
%TA.AperFunction,ComponentPad*%
%ADD20R,2.000000X2.000000*%
%TD*%
%TA.AperFunction,ComponentPad*%
%ADD21C,2.000000*%
%TD*%
%TA.AperFunction,WasherPad*%
%ADD22C,1.000000*%
%TD*%
%TA.AperFunction,ComponentPad*%
%ADD23C,3.000000*%
%TD*%
%TA.AperFunction,ViaPad*%
%ADD24C,0.800000*%
%TD*%
%TA.AperFunction,Conductor*%
%ADD25C,0.250000*%
%TD*%
%TA.AperFunction,Conductor*%
%ADD26C,0.500000*%
%TD*%
G04 APERTURE END LIST*
%TO.C,Q1*%
G36*
X500000Y-54750000D02*
G01*
X1000000Y-55250000D01*
X1000000Y-57950000D01*
X500000Y-58450000D01*
X-500000Y-58450000D01*
X-1000000Y-57950000D01*
X-1000000Y-55250000D01*
X-500000Y-54750000D01*
X-500000Y-54200000D01*
X500000Y-54200000D01*
X500000Y-54750000D01*
G37*
%TD*%
D10*
%TO.P,Q1,1,E*%
%TO.N,GND*%
X-1500000Y-53700000D03*
%TO.P,Q1,2,B*%
%TO.N,Net-(Q1-Pad2)*%
X1500000Y-53700000D03*
%TO.P,Q1,3,C*%
%TO.N,Net-(BZ1-Pad2)*%
X0Y-53700000D03*
%TD*%
D11*
%TO.P,SW1,1,1*%
%TO.N,START*%
X20575000Y-16200000D03*
D12*
%TO.P,SW1,2,2*%
%TO.N,+5V*%
X17960000Y-16200000D03*
%TD*%
D13*
%TO.P,R9,1*%
%TO.N,GND*%
X18687500Y-13200000D03*
%TO.P,R9,2*%
%TO.N,START*%
X20512500Y-13200000D03*
%TD*%
D14*
%TO.P,D3,1,A1*%
%TO.N,M3_DIR*%
X-9125000Y-32360000D03*
%TO.P,D3,2,A2*%
%TO.N,GND*%
X-7375000Y-32360000D03*
%TD*%
D13*
%TO.P,R19,1*%
%TO.N,EMO*%
X-9207500Y-40000000D03*
%TO.P,R19,2*%
%TO.N,GND*%
X-7382500Y-40000000D03*
%TD*%
D11*
%TO.P,U3,1,CHA*%
%TO.N,M3_ENCA*%
X17960000Y-24762500D03*
D12*
%TO.P,U3,2,CHB*%
%TO.N,M3_ENCB*%
X17960000Y-27302500D03*
%TO.P,U3,3,5V*%
%TO.N,+5V*%
X17960000Y-29842500D03*
%TO.P,U3,4,CW/CCW*%
%TO.N,M3_DIR*%
X17960000Y-32382500D03*
%TO.P,U3,5,PWM*%
%TO.N,M3_PWM*%
X17960000Y-34922500D03*
%TO.P,U3,6,BRAKE*%
%TO.N,EMO*%
X17960000Y-37462500D03*
%TO.P,U3,7,GND*%
%TO.N,GND*%
X17960000Y-40002500D03*
%TO.P,U3,8,Vm*%
%TO.N,+BATT*%
X17960000Y-42542500D03*
%TD*%
D15*
%TO.P,C2,1*%
%TO.N,+5V*%
X-2662500Y-38000000D03*
%TO.P,C2,2*%
%TO.N,GND*%
X-937500Y-38000000D03*
%TD*%
D14*
%TO.P,D6,1,A1*%
%TO.N,M3_PWM*%
X-9125000Y-34900000D03*
%TO.P,D6,2,A2*%
%TO.N,GND*%
X-7375000Y-34900000D03*
%TD*%
%TO.P,D5,1,A1*%
%TO.N,M2_PWM*%
X-9125000Y-29820000D03*
%TO.P,D5,2,A2*%
%TO.N,GND*%
X-7375000Y-29820000D03*
%TD*%
D11*
%TO.P,U1,1,CHA*%
%TO.N,M1_ENCA*%
X-17960000Y-42506000D03*
D12*
%TO.P,U1,2,CHB*%
%TO.N,M1_ENCB*%
X-17960000Y-39966000D03*
%TO.P,U1,3,5V*%
%TO.N,+5V*%
X-17960000Y-37426000D03*
%TO.P,U1,4,CW/CCW*%
%TO.N,M1_DIR*%
X-17960000Y-34886000D03*
%TO.P,U1,5,PWM*%
%TO.N,M1_PWM*%
X-17960000Y-32346000D03*
%TO.P,U1,6,BRAKE*%
%TO.N,EMO*%
X-17960000Y-29806000D03*
%TO.P,U1,7,GND*%
%TO.N,GND*%
X-17960000Y-27266000D03*
%TO.P,U1,8,Vm*%
%TO.N,+BATT*%
X-17960000Y-24726000D03*
%TD*%
D16*
%TO.P,C1,1*%
%TO.N,+BATT*%
X2762500Y-38000000D03*
%TO.P,C1,2*%
%TO.N,GND*%
X1037500Y-38000000D03*
%TD*%
D11*
%TO.P,U5,1,~{RESET}*%
%TO.N,unconnected-(U5-Pad1)*%
X-12700000Y-9500000D03*
D17*
%TO.P,U5,2,SENSOR_VP*%
%TO.N,unconnected-(U5-Pad2)*%
X-12700000Y-12040000D03*
%TO.P,U5,3,SENSOR_VN*%
%TO.N,unconnected-(U5-Pad3)*%
X-12700000Y-14580000D03*
%TO.P,U5,4,I34*%
%TO.N,Vsense*%
X-12700000Y-17120000D03*
%TO.P,U5,5,IO35*%
%TO.N,unconnected-(U5-Pad5)*%
X-12700000Y-19660000D03*
%TO.P,U5,6,IO32*%
%TO.N,M1_DIR*%
X-12700000Y-22200000D03*
%TO.P,U5,7,IO33*%
%TO.N,M1_PWM*%
X-12700000Y-24740000D03*
%TO.P,U5,8,IO25*%
%TO.N,M2_DIR*%
X-12700000Y-27280000D03*
%TO.P,U5,9,IO26*%
%TO.N,M2_PWM*%
X-12700000Y-29820000D03*
%TO.P,U5,10,IO27*%
%TO.N,M3_DIR*%
X-12700000Y-32360000D03*
%TO.P,U5,11,IO14*%
%TO.N,M3_PWM*%
X-12700000Y-34900000D03*
%TO.P,U5,12,IO12*%
%TO.N,unconnected-(U5-Pad12)*%
X-12700000Y-37440000D03*
%TO.P,U5,13,IO13*%
%TO.N,EMO*%
X-12700000Y-39980000D03*
%TO.P,U5,14,GND*%
%TO.N,GND*%
X-12700000Y-42520000D03*
%TO.P,U5,15,VIN*%
%TO.N,+5V*%
X-12700000Y-45060000D03*
%TO.P,U5,16,IO23*%
%TO.N,unconnected-(U5-Pad16)*%
X12700000Y-9500000D03*
%TO.P,U5,17,SCL*%
%TO.N,SCL*%
X12700000Y-12040000D03*
%TO.P,U5,18,TXD*%
%TO.N,unconnected-(U5-Pad18)*%
X12700000Y-14580000D03*
%TO.P,U5,19,RXD*%
%TO.N,unconnected-(U5-Pad19)*%
X12700000Y-17120000D03*
%TO.P,U5,20,SDA*%
%TO.N,SDA*%
X12700000Y-19660000D03*
%TO.P,U5,21,IO19*%
%TO.N,START*%
X12700000Y-22200000D03*
%TO.P,U5,22,IO18*%
%TO.N,Valarm*%
X12700000Y-24740000D03*
%TO.P,U5,23,IO5*%
%TO.N,M1_ENCA*%
X12700000Y-27280000D03*
%TO.P,U5,24,IO17*%
%TO.N,M1_ENCB*%
X12700000Y-29820000D03*
%TO.P,U5,25,IO16*%
%TO.N,M2_ENCA*%
X12700000Y-32360000D03*
%TO.P,U5,26,IO4*%
%TO.N,M2_ENCB*%
X12700000Y-34900000D03*
%TO.P,U5,27,IO2*%
%TO.N,M3_ENCA*%
X12700000Y-37440000D03*
%TO.P,U5,28,IO15*%
%TO.N,M3_ENCB*%
X12700000Y-39980000D03*
%TO.P,U5,29,GND*%
%TO.N,GND*%
X12700000Y-42520000D03*
%TO.P,U5,30,3V3*%
%TO.N,+3V3*%
X12700000Y-45060000D03*
%TD*%
D12*
%TO.P,U2,8,Vm*%
%TO.N,+BATT*%
X-8792500Y-64960000D03*
%TO.P,U2,7,GND*%
%TO.N,GND*%
X-6252500Y-64960000D03*
%TO.P,U2,6,BRAKE*%
%TO.N,EMO*%
X-3712500Y-64960000D03*
%TO.P,U2,5,PWM*%
%TO.N,M2_PWM*%
X-1172500Y-64960000D03*
%TO.P,U2,4,CW/CCW*%
%TO.N,M2_DIR*%
X1367500Y-64960000D03*
%TO.P,U2,3,5V*%
%TO.N,+5V*%
X3907500Y-64960000D03*
%TO.P,U2,2,CHB*%
%TO.N,M2_ENCB*%
X6447500Y-64960000D03*
D11*
%TO.P,U2,1,CHA*%
%TO.N,M2_ENCA*%
X8987500Y-64960000D03*
%TD*%
D14*
%TO.P,D2,1,A1*%
%TO.N,M2_DIR*%
X-9125000Y-27280000D03*
%TO.P,D2,2,A2*%
%TO.N,GND*%
X-7375000Y-27280000D03*
%TD*%
D12*
%TO.P,U6,5*%
%TO.N,N/C*%
X17960000Y-65332500D03*
%TO.P,U6,4,AD0*%
%TO.N,Net-(R14-Pad2)*%
X17960000Y-62792500D03*
%TO.P,U6,3,SDA_BLU*%
%TO.N,SDA*%
X17960000Y-60252500D03*
%TO.P,U6,2,GND_BLK*%
%TO.N,GND*%
X17960000Y-57712500D03*
D11*
%TO.P,U6,1,VCC_RED*%
%TO.N,+5V*%
X17960000Y-55172500D03*
%TD*%
D12*
%TO.P,U7,5*%
%TO.N,N/C*%
X-17960000Y-55167500D03*
%TO.P,U7,4,AD0*%
%TO.N,Net-(R16-Pad2)*%
X-17960000Y-57707500D03*
%TO.P,U7,3,SDA_BLU*%
%TO.N,SDA*%
X-17960000Y-60247500D03*
%TO.P,U7,2,GND_BLK*%
%TO.N,GND*%
X-17960000Y-62787500D03*
D11*
%TO.P,U7,1,VCC_RED*%
%TO.N,+5V*%
X-17960000Y-65327500D03*
%TD*%
D14*
%TO.P,D1,1,A1*%
%TO.N,M1_DIR*%
X-9125000Y-22200000D03*
%TO.P,D1,2,A2*%
%TO.N,GND*%
X-7375000Y-22200000D03*
%TD*%
%TO.P,D4,1,A1*%
%TO.N,M1_PWM*%
X-9125000Y-24740000D03*
%TO.P,D4,2,A2*%
%TO.N,GND*%
X-7375000Y-24740000D03*
%TD*%
D18*
%TO.P,U4,1,VI*%
%TO.N,+BATT*%
X2540000Y-40730000D03*
D19*
%TO.P,U4,2,GND*%
%TO.N,GND*%
X0Y-40730000D03*
%TO.P,U4,3,VO*%
%TO.N,+5V*%
X-2540000Y-40730000D03*
%TD*%
D20*
%TO.P,BZ1,1,-*%
%TO.N,+5V*%
X-3800000Y-50500000D03*
D21*
%TO.P,BZ1,2,+*%
%TO.N,Net-(BZ1-Pad2)*%
X3800000Y-50500000D03*
%TD*%
D22*
%TO.P,J1,*%
%TO.N,*%
X5500000Y-6500000D03*
X-5500000Y-6500000D03*
D23*
%TO.P,J1,1,Pin_1*%
%TO.N,+BATT*%
X2500000Y-16500000D03*
%TO.P,J1,2,Pin_2*%
%TO.N,GND*%
X-2500000Y-16500000D03*
%TD*%
D24*
%TO.N,GND*%
X-1500000Y-52100000D03*
X17400000Y-13200000D03*
%TO.N,M3_DIR*%
X9100000Y-31100000D03*
X-5700000Y-31100000D03*
%TO.N,M3_PWM*%
X9100000Y-33600000D03*
X-5725000Y-33725000D03*
%TO.N,GND*%
X-7382500Y-41117200D03*
%TO.N,M3_ENCB*%
X15300000Y-39100000D03*
%TO.N,Net-(Q1-Pad2)*%
X7415200Y-25842300D03*
%TO.N,+BATT*%
X-7337500Y-20825500D03*
%TO.N,GND*%
X-7375000Y-28525000D03*
X-7352000Y-15998000D03*
%TD*%
D25*
%TO.N,M2_ENCA*%
X14600000Y-53315400D02*
X14542300Y-53257700D01*
X14542300Y-34202300D02*
X12700000Y-32360000D01*
X8987500Y-62712500D02*
X14600000Y-57100000D01*
X14600000Y-57100000D02*
X14600000Y-53315400D01*
X8987500Y-64960000D02*
X8987500Y-62712500D01*
X14542300Y-53257700D02*
X14542300Y-34202300D01*
D26*
%TO.N,GND*%
X-1500000Y-53700000D02*
X-1500000Y-52100000D01*
D25*
%TO.N,Net-(Q1-Pad2)*%
X9900000Y-28327100D02*
X7415200Y-25842300D01*
X9900000Y-46273833D02*
X9900000Y-28327100D01*
X1500000Y-53700000D02*
X2473833Y-53700000D01*
X2473833Y-53700000D02*
X9900000Y-46273833D01*
%TO.N,Net-(BZ1-Pad2)*%
X0Y-53100000D02*
X2600000Y-50500000D01*
X2600000Y-50500000D02*
X3800000Y-50500000D01*
X0Y-53700000D02*
X0Y-53100000D01*
D26*
%TO.N,GND*%
X18687500Y-13200000D02*
X17400000Y-13200000D01*
D25*
%TO.N,START*%
X20575000Y-13262500D02*
X20575000Y-16200000D01*
X20512500Y-13200000D02*
X20575000Y-13262500D01*
%TO.N,M3_DIR*%
X-5700000Y-31100000D02*
X9100000Y-31100000D01*
%TO.N,M3_PWM*%
X-5600000Y-33600000D02*
X9100000Y-33600000D01*
X-5725000Y-33725000D02*
X-5600000Y-33600000D01*
%TO.N,M1_ENCA*%
X-14037300Y-18400000D02*
X3820000Y-18400000D01*
X-20700000Y-39766000D02*
X-20700000Y-25062700D01*
X-20700000Y-25062700D02*
X-14037300Y-18400000D01*
X3820000Y-18400000D02*
X12700000Y-27280000D01*
X-17960000Y-42506000D02*
X-20700000Y-39766000D01*
%TO.N,M1_PWM*%
X-19200000Y-31106000D02*
X-17960000Y-32346000D01*
X-19200000Y-29200000D02*
X-19200000Y-31106000D01*
X-18536000Y-28536000D02*
X-19200000Y-29200000D01*
X-16496000Y-28536000D02*
X-18536000Y-28536000D01*
X-12700000Y-24740000D02*
X-16496000Y-28536000D01*
%TO.N,M1_DIR*%
X-16496000Y-25996000D02*
X-12700000Y-22200000D01*
X-18596000Y-25996000D02*
X-16496000Y-25996000D01*
X-19700000Y-27100000D02*
X-18596000Y-25996000D01*
X-19700000Y-33146000D02*
X-19700000Y-27100000D01*
X-17960000Y-34886000D02*
X-19700000Y-33146000D01*
%TO.N,M1_ENCB*%
X2531499Y-19651499D02*
X12700000Y-29820000D01*
X-9102288Y-20930000D02*
X-7823787Y-19651499D01*
X-15851200Y-20930000D02*
X-9102288Y-20930000D01*
X-20200000Y-25278800D02*
X-15851200Y-20930000D01*
X-7823787Y-19651499D02*
X2531499Y-19651499D01*
X-17960000Y-39966000D02*
X-20200000Y-37726000D01*
X-20200000Y-37726000D02*
X-20200000Y-25278800D01*
%TO.N,EMO*%
X10000000Y-66400000D02*
X-2272500Y-66400000D01*
X16145100Y-60254900D02*
X10000000Y-66400000D01*
X16145100Y-39277400D02*
X16145100Y-60254900D01*
X-2272500Y-66400000D02*
X-3712500Y-64960000D01*
X17960000Y-37462500D02*
X16145100Y-39277400D01*
%TO.N,SDA*%
X11312500Y-66900000D02*
X17960000Y-60252500D01*
X-11307500Y-66900000D02*
X11312500Y-66900000D01*
X-17960000Y-60247500D02*
X-11307500Y-66900000D01*
%TO.N,M3_ENCA*%
X14000000Y-36140000D02*
X12700000Y-37440000D01*
X14000000Y-34427800D02*
X14000000Y-36140000D01*
X13202200Y-33630000D02*
X14000000Y-34427800D01*
X12030000Y-33630000D02*
X13202200Y-33630000D01*
X11400000Y-31945300D02*
X11400000Y-33000000D01*
X15367150Y-28867150D02*
X13134300Y-31100000D01*
X15367150Y-27355350D02*
X15367150Y-28867150D01*
X13134300Y-31100000D02*
X12245300Y-31100000D01*
X12245300Y-31100000D02*
X11400000Y-31945300D01*
X17960000Y-24762500D02*
X15367150Y-27355350D01*
X11400000Y-33000000D02*
X12030000Y-33630000D01*
%TO.N,SDA*%
X15712200Y-19660000D02*
X12700000Y-19660000D01*
X19647500Y-23595300D02*
X15712200Y-19660000D01*
X16700000Y-58500000D02*
X16700000Y-46694100D01*
X16700000Y-46694100D02*
X19647500Y-43746600D01*
X17960000Y-59760000D02*
X16700000Y-58500000D01*
X17960000Y-60252500D02*
X17960000Y-59760000D01*
X19647500Y-43746600D02*
X19647500Y-23595300D01*
%TO.N,EMO*%
X-9207500Y-59465000D02*
X-9207500Y-40000000D01*
X-3712500Y-64960000D02*
X-9207500Y-59465000D01*
%TO.N,M2_PWM*%
X-8250100Y-57849900D02*
X-1172500Y-64927500D01*
X-1172500Y-64927500D02*
X-1172500Y-64960000D01*
X-8250100Y-30694900D02*
X-8250100Y-57849900D01*
X-9125000Y-29820000D02*
X-8250100Y-30694900D01*
D26*
%TO.N,GND*%
X-7382500Y-40000000D02*
X-7382500Y-41117200D01*
D25*
%TO.N,M2_DIR*%
X-8273900Y-20737302D02*
X-8273900Y-26398900D01*
X-7637598Y-20101000D02*
X-8273900Y-20737302D01*
X-6462600Y-20675802D02*
X-7037402Y-20101000D01*
X-6462600Y-57129900D02*
X-6462600Y-20675802D01*
X-7037402Y-20101000D02*
X-7637598Y-20101000D01*
X1367500Y-64960000D02*
X-6462600Y-57129900D01*
X-8273900Y-26398900D02*
X-9155000Y-27280000D01*
D26*
%TO.N,GND*%
X-7375000Y-27280000D02*
X-7375000Y-29820000D01*
D25*
%TO.N,M3_ENCB*%
X15300000Y-29962500D02*
X15300000Y-39100000D01*
X17960000Y-27302500D02*
X15300000Y-29962500D01*
%TO.N,EMO*%
X-16595200Y-31170800D02*
X-16595200Y-36084800D01*
X-16595200Y-36084800D02*
X-12700000Y-39980000D01*
X-17960000Y-29806000D02*
X-16595200Y-31170800D01*
X-9218000Y-39990000D02*
X-9208000Y-40000000D01*
X-9217500Y-39990000D02*
X-9207500Y-40000000D01*
X-9218000Y-39990000D02*
X-9217500Y-39990000D01*
X-9228000Y-39980000D02*
X-9218000Y-39990000D01*
X-12700000Y-39980000D02*
X-9228000Y-39980000D01*
%TO.N,M2_ENCB*%
X10676100Y-36923900D02*
X12700000Y-34900000D01*
X10676100Y-59556300D02*
X10676100Y-36923900D01*
X6447500Y-63784900D02*
X10676100Y-59556300D01*
X6447500Y-64960000D02*
X6447500Y-63784900D01*
%TO.N,M3_PWM*%
X-10487500Y-34900000D02*
X-12700000Y-34900000D01*
X-9225000Y-34900000D02*
X-10487500Y-34900000D01*
X-10487500Y-34900000D02*
X-9225000Y-34900000D01*
X-9225000Y-34900000D02*
X-9125000Y-34900000D01*
X-9125000Y-35000000D02*
X-9225000Y-34900000D01*
%TO.N,M2_PWM*%
X-12700000Y-29820000D02*
X-9509100Y-29820000D01*
X-9509100Y-29820000D02*
X-9125000Y-29820000D01*
%TO.N,M1_PWM*%
X-9140000Y-24725000D02*
X-9125000Y-24740000D01*
X-9125000Y-24710000D02*
X-9140000Y-24725000D01*
X-9155000Y-24740000D02*
X-12700000Y-24740000D01*
X-9140000Y-24725000D02*
X-9155000Y-24740000D01*
%TO.N,M3_DIR*%
X-9265000Y-32360000D02*
X-10982500Y-32360000D01*
X-10982500Y-32360000D02*
X-9265000Y-32360000D01*
X-9265000Y-32360000D02*
X-9125000Y-32360000D01*
X-9125000Y-32500000D02*
X-9265000Y-32360000D01*
X-10982500Y-32360000D02*
X-12700000Y-32360000D01*
%TO.N,M2_DIR*%
X-9155000Y-27280000D02*
X-9382300Y-27280000D01*
X-9382300Y-27280000D02*
X-12700000Y-27280000D01*
X-9382300Y-27280000D02*
X-9155000Y-27280000D01*
X-9155000Y-27280000D02*
X-9125000Y-27280000D01*
%TO.N,M1_DIR*%
X-9130000Y-22205000D02*
X-9125000Y-22200000D01*
X-9125000Y-22210000D02*
X-9130000Y-22205000D01*
X-9135000Y-22200000D02*
X-12700000Y-22200000D01*
X-9130000Y-22205000D02*
X-9135000Y-22200000D01*
D26*
%TO.N,+5V*%
X-2662500Y-39303500D02*
X-2662500Y-38000000D01*
X-2662000Y-39304000D02*
X-2662500Y-39303500D01*
X-2662000Y-40608000D02*
X-2540000Y-40730000D01*
X-2662000Y-39304000D02*
X-2662000Y-40608000D01*
X-2662000Y-38000000D02*
X-2662000Y-39304000D01*
%TO.N,+BATT*%
X2762000Y-38000000D02*
X2762000Y-39254000D01*
X2762000Y-40508000D02*
X2540000Y-40730000D01*
X2762000Y-39254000D02*
X2762000Y-40508000D01*
X2762500Y-39253500D02*
X2762500Y-38000000D01*
X2762000Y-39254000D02*
X2762500Y-39253500D01*
%TO.N,GND*%
X0Y-38000000D02*
X1037500Y-38000000D01*
X-937500Y-38000000D02*
X0Y-38000000D01*
X0Y-40730000D02*
X0Y-38000000D01*
X1037500Y-38000000D02*
X1038000Y-38000000D01*
X-938000Y-38000000D02*
X-937500Y-38000000D01*
X-7375000Y-22200000D02*
X-7375000Y-24740000D01*
X-7375000Y-26010000D02*
X-7375000Y-24740000D01*
X-7375000Y-29820000D02*
X-7375000Y-32360000D01*
X-7375000Y-32360000D02*
X-7375000Y-34900000D01*
X-7375000Y-26010000D02*
X-7375000Y-27280000D01*
%TD*%
M02*
